<svg width="548" height="71" xmlns="http://www.w3.org/2000/svg"><g fill="none" fill-rule="evenodd"><path d="M51 4c.6 0 1.2.2 1.8.5l.4.2 8.4 5A14 14 0 0168 20.8v24.8A14 14 0 0161.6 57L40.4 69.4c-1.8 1-4 1.6-6.4 1.6-2.4 0-4.6-.6-6.4-1.6L6.4 57A14 14 0 010 45.7V20.9A14 14 0 016.4 9.6l8.4-5 .4-.1c.6-.3 1.2-.5 1.9-.5 2.3 0 4.2 1.9 4.2 4.2 0 1.5-.8 2.9-2 3.6l-.3.2-8.4 5c-1.1.6-2.3 2.6-2.3 3.9v24.8c0 1.3 1.2 3.3 2.3 4L31.8 62c.3.2 1.1.4 2.2.4 1 0 1.9-.2 2.2-.4l21.2-12.4c1.1-.7 2.3-2.7 2.3-4V20.9c0-1.3-1.2-3.3-2.3-4L49 12l-.3-.2c-1.2-.7-2-2-2-3.6C46.7 6 48.7 4 51 4zM34.6 0C36.5 0 38 1.6 38 3.5v27c0 2-1.5 3.5-3.3 3.5h-1.4a3.5 3.5 0 01-3.3-3.5v-27c0-2 1.5-3.5 3.3-3.5h1.4z" fill="#0E632C"/><path d="M102.2 14.7c5.7 0 10.2 1.7 13.7 4.3.8.6 1.4 1.4 1.4 2.5 0 1.7-1.5 3.2-3.2 3.2a3 3 0 01-1.7-.6 17 17 0 00-10.1-3.2c-5.2 0-8.5 2-8.5 5.4 0 3.6 4.5 4.8 9.6 6 7.1 1.6 15.7 3.6 15.7 13 0 7.1-5.8 12.7-16.7 12.7-5.7 0-10.8-1.5-15-4.6a3.4 3.4 0 01-1.4-2.7c0-2 1.4-3.4 3.3-3.4.7 0 1.4.3 1.9.6a20 20 0 0011.6 4c5.8 0 8.9-2.4 8.9-6 0-4-4.7-5.4-10-6.6-7-1.6-15.2-3.5-15.2-12.4 0-6.6 5.6-12.2 15.7-12.2zm31-10.7c2 0 3.9 1.7 3.9 3.8v8h5.3c1.9 0 3.4 1.4 3.4 3.2 0 2-1.5 3.5-3.4 3.5h-5.3V46c0 3 1.3 5 4 5 1.4 0 2-.4 2.7-.4a3 3 0 013.2 3.2 3 3 0 01-2 2.9c-1.4.7-3.3 1.2-5.8 1.2-6.5 0-9.8-3.7-9.8-10.2V22.5h-4a3.5 3.5 0 01-3.3-3.5c0-1.8 1.6-3.3 3.4-3.3h3.9V7.8c0-2 1.7-3.8 3.8-3.8zm37.5 10.7c9 0 16.5 4 16.5 14.4v24.5c0 2-1.8 3.8-3.8 3.8-2 0-3.8-1.7-3.8-3.8v-1.2c-3.2 3.6-8 5.6-13.5 5.6-6.8 0-14.3-4.6-14.3-13.7 0-9.4 7.4-13.5 14.3-13.5 5.5 0 10.3 1.8 13.5 5.5v-6.8c0-5.2-4.2-8.2-10.1-8.2-3.7 0-7 1-10.1 3.5-.6.4-1.2.6-2 .6a3.1 3.1 0 01-1.7-5.6 23 23 0 0115-5.1zm43.4 0c9 0 16.5 4 16.5 14.4v24.5c0 2-1.7 3.8-3.8 3.8-2 0-3.8-1.7-3.8-3.8v-1.2c-3.2 3.6-8 5.6-13.5 5.6-6.8 0-14.3-4.6-14.3-13.7 0-9.4 7.4-13.5 14.3-13.5 5.6 0 10.3 1.8 13.5 5.5v-6.8c0-5.2-4.2-8.2-10-8.2-3.8 0-7 1-10.2 3.5a3.1 3.1 0 01-3.7-5 23 23 0 0115-5.1zm60-10.7c2.1 0 4 1.7 4 3.8v8h5.3c1.9 0 3.4 1.4 3.4 3.2 0 2-1.5 3.5-3.4 3.5H278V46c0 3 1.4 5 4 5 1.5 0 2-.4 2.8-.4a3 3 0 013.2 3.2 3 3 0 01-2 2.9c-1.4.7-3.4 1.2-5.8 1.2-6.5 0-9.8-3.7-9.8-10.2V22.4c-9.7-.8-17 2.5-21.8 10v21.2c0 2-1.8 3.8-3.8 3.8a3.8 3.8 0 01-3.8-3.8V19c0-2.1 1.7-3.8 3.7-3.8 2.1 0 4 1.7 4 3.8v3c3.3-3.8 10.5-5.8 21.7-6V7.7c0-2 1.7-3.8 3.8-3.8zM169 36.2c-5.6 0-9.5 3.3-9.5 8.2 0 4.9 4 8.2 9.5 8.2a13 13 0 0010.6-4.7v-7a13 13 0 00-10.6-4.7zm43.4 0c-5.5 0-9.5 3.3-9.5 8.2 0 4.9 4 8.2 9.5 8.2A13 13 0 00223 48v-7a13 13 0 00-10.6-4.7z" fill="#0E632C" fill-rule="nonzero"/><path d="M343.3 58.5c-1.8 0-3.4-.9-4.4-2.3l-24.8-34.7V54c0 2.4-2 4.5-4.4 4.5-2.4 0-4.4-2-4.4-4.5V13.3c0-3.2 2.6-5.8 5.8-5.8 1.9 0 3.6 1 4.6 2.4L340 43.5V11.9c0-2.3 2-4.4 4.4-4.4 2.4 0 4.4 2 4.4 4.4V53c0 3-2.4 5.5-5.4 5.5zm58-6.1c.1.4.4 1 .4 1.6 0 2.4-2 4.5-4.5 4.5a4.4 4.4 0 01-4.2-2.9l-2.6-7.2h-24l-2.6 7.2a4.4 4.4 0 01-4.1 2.9c-2.5 0-4.5-2-4.5-4.5 0-.6.2-1.2.3-1.6l15.7-40c1.1-2.8 4-4.9 7.2-4.9 3.3 0 6 2.1 7.2 5l15.7 39.9zm-32.1-11.7h18.4l-9.2-25.3-9.2 25.3zm49 17.8c-2.5 0-4.4-2-4.4-4.5V15.7H402a4 4 0 01-4-3.8 4 4 0 014-4h32.2a4 4 0 013.9 4 4 4 0 01-4 3.8h-11.6V54c0 2.4-2 4.5-4.4 4.5zm30.6 0c-2.5 0-4.4-2-4.4-4.5V12c0-2.4 1.9-4.5 4.4-4.5 2.4 0 4.3 2 4.3 4.4V54c0 2.4-2 4.5-4.3 4.5zm34 0a7.9 7.9 0 01-7.2-5L460 13.8a4 4 0 01-.4-1.6 4.6 4.6 0 019-1.7l14.2 38 14.1-38a4.7 4.7 0 019 1.7 4 4 0 01-.3 1.6L490 53.5c-1 2.8-4 5-7.2 5zm34.5-.5c-3 0-4.6-1.7-4.6-4.7V12.6c0-3 1.6-4.6 4.6-4.6h26.2a4 4 0 014 3.9 4 4 0 01-4 3.8h-22v13H543a4 4 0 013.9 3.8 4 4 0 01-4 3.9h-21.4v13.9h22a4 4 0 014 3.8 4 4 0 01-4 3.9h-26.2z" fill="#009E32" fill-rule="nonzero"/></g></svg>
