<svg width="666" height="71" xmlns="http://www.w3.org/2000/svg"><g fill="none" fill-rule="evenodd"><path d="M51 4c.6 0 1.2.2 1.8.5l.4.2 8.4 5A14 14 0 0168 20.8v24.8A14 14 0 0161.6 57L40.4 69.4c-1.8 1-4 1.6-6.4 1.6-2.4 0-4.6-.6-6.4-1.6L6.4 57A14 14 0 010 45.7V20.9A14 14 0 016.4 9.6l8.4-5 .4-.1c.6-.3 1.2-.5 1.9-.5 2.3 0 4.2 1.9 4.2 4.2 0 1.5-.8 2.9-2 3.6l-.3.2-8.4 5c-1.1.6-2.3 2.6-2.3 3.9v24.8c0 1.3 1.2 3.3 2.3 4L31.8 62c.3.2 1.1.4 2.2.4 1 0 1.9-.2 2.2-.4l21.2-12.4c1.1-.7 2.3-2.7 2.3-4V20.9c0-1.3-1.2-3.3-2.3-4L49 12l-.3-.2c-1.2-.7-2-2-2-3.6C46.7 6 48.7 4 51 4zM34.6 0C36.5 0 38 1.6 38 3.5v27c0 2-1.5 3.5-3.3 3.5h-1.4a3.5 3.5 0 01-3.3-3.5v-27c0-2 1.5-3.5 3.3-3.5h1.4z" fill="#0E632C"/><path d="M102.2 14.7c5.7 0 10.2 1.7 13.7 4.3.8.6 1.4 1.4 1.4 2.5 0 1.7-1.5 3.2-3.2 3.2a3 3 0 01-1.7-.6 17 17 0 00-10.1-3.2c-5.2 0-8.5 2-8.5 5.4 0 3.6 4.5 4.8 9.6 6 7.1 1.6 15.7 3.6 15.7 13 0 7.1-5.8 12.7-16.7 12.7-5.7 0-10.8-1.5-15-4.6a3.4 3.4 0 01-1.4-2.7c0-2 1.4-3.4 3.3-3.4.7 0 1.4.3 1.9.6a20 20 0 0011.6 4c5.8 0 8.9-2.4 8.9-6 0-4-4.7-5.4-10-6.6-7-1.6-15.2-3.5-15.2-12.4 0-6.6 5.6-12.2 15.7-12.2zm31-10.7c2 0 3.9 1.7 3.9 3.8v8h5.3c1.9 0 3.4 1.4 3.4 3.2 0 2-1.5 3.5-3.4 3.5h-5.3V46c0 3 1.3 5 4 5 1.4 0 2-.4 2.7-.4a3 3 0 013.2 3.2 3 3 0 01-2 2.9c-1.4.7-3.3 1.2-5.8 1.2-6.5 0-9.8-3.7-9.8-10.2V22.5h-4a3.5 3.5 0 01-3.3-3.5c0-1.8 1.6-3.3 3.4-3.3h3.9V7.8c0-2 1.7-3.8 3.8-3.8zm37.5 10.7c9 0 16.5 4 16.5 14.4v24.5c0 2-1.8 3.8-3.8 3.8-2 0-3.8-1.7-3.8-3.8v-1.2c-3.2 3.6-8 5.6-13.5 5.6-6.8 0-14.3-4.6-14.3-13.7 0-9.4 7.4-13.5 14.3-13.5 5.5 0 10.3 1.8 13.5 5.5v-6.8c0-5.2-4.2-8.2-10.1-8.2-3.7 0-7 1-10.1 3.5-.6.4-1.2.6-2 .6a3.1 3.1 0 01-1.7-5.6 23 23 0 0115-5.1zm43.4 0c9 0 16.5 4 16.5 14.4v24.5c0 2-1.7 3.8-3.8 3.8-2 0-3.8-1.7-3.8-3.8v-1.2c-3.2 3.6-8 5.6-13.5 5.6-6.8 0-14.3-4.6-14.3-13.7 0-9.4 7.4-13.5 14.3-13.5 5.6 0 10.3 1.8 13.5 5.5v-6.8c0-5.2-4.2-8.2-10-8.2-3.8 0-7 1-10.2 3.5a3.1 3.1 0 01-3.7-5 23 23 0 0115-5.1zm60-10.7c2.1 0 4 1.7 4 3.8v8h5.3c1.9 0 3.4 1.4 3.4 3.2 0 2-1.5 3.5-3.4 3.5H278V46c0 3 1.4 5 4 5 1.5 0 2-.4 2.8-.4a3 3 0 013.2 3.2 3 3 0 01-2 2.9c-1.4.7-3.4 1.2-5.8 1.2-6.5 0-9.8-3.7-9.8-10.2V22.4c-9.7-.8-17 2.5-21.8 10v21.2c0 2-1.8 3.8-3.8 3.8a3.8 3.8 0 01-3.8-3.8V19c0-2.1 1.7-3.8 3.7-3.8 2.1 0 4 1.7 4 3.8v3c3.3-3.8 10.5-5.8 21.7-6V7.7c0-2 1.7-3.8 3.8-3.8zM169 36.2c-5.6 0-9.5 3.3-9.5 8.2 0 4.9 4 8.2 9.5 8.2a13 13 0 0010.6-4.7v-7a13 13 0 00-10.6-4.7zm43.4 0c-5.5 0-9.5 3.3-9.5 8.2 0 4.9 4 8.2 9.5 8.2A13 13 0 00223 48v-7a13 13 0 00-10.6-4.7z" fill="#0E632C" fill-rule="nonzero"/><path d="M309.8 58.5c-2.5 0-4.5-2-4.5-4.5V12.6c0-3 1.7-4.6 4.7-4.6h17.3c10.5 0 16.3 7.2 16.3 15.6 0 8.5-5.9 15.7-16.3 15.7h-13.2V54c0 2.4-2 4.5-4.4 4.5zm24.8-34.9c0-4.8-3.6-7.9-8.5-7.9h-12v15.9h12c5 0 8.5-3.1 8.5-8zm52.7 28.8c.1.4.3 1 .3 1.6 0 2.4-2 4.5-4.5 4.5a4.4 4.4 0 01-4-2.9l-2.7-7.2h-24l-2.6 7.2a4.4 4.4 0 01-4.2 2.9c-2.4 0-4.5-2-4.5-4.5 0-.6.3-1.2.4-1.6l15.7-40c1.1-2.8 3.9-4.9 7.2-4.9 3.3 0 6 2.1 7.2 5l15.7 39.9zm-32.1-11.7h18.4l-9.2-25.3-9.2 25.3zm60 18.2A25.1 25.1 0 01389.3 33a25.1 25.1 0 0126-25.9c8 0 13.5 3.1 17.5 7.5a4.2 4.2 0 11-6.2 5.5 15 15 0 00-11.4-5.1c-9.5 0-16.9 7.5-16.9 18s7.4 18.1 17 18.1c4.6 0 8.5-2 11.3-5.1.8-.8 1.8-1.4 3-1.4a4.2 4.2 0 013.2 6.9c-4 4.3-9.5 7.4-17.6 7.4zm63.5-7.4c.7.7 1.1 1.8 1.1 2.8 0 2.2-1.7 4.2-4 4.2a4 4 0 01-3.1-1.3l-18.3-20-4.4 4.7V54c0 2.4-2 4.5-4.4 4.5-2.4 0-4.4-2-4.4-4.5V12c0-2.4 2-4.5 4.4-4.5 2.4 0 4.4 2 4.4 4.4v20l21-23a4.1 4.1 0 017.2 2.7c0 1-.2 2-1 2.8L460.2 32l18.4 19.5zm51 .9c.2.4.4 1 .4 1.6 0 2.4-2 4.5-4.5 4.5a4.4 4.4 0 01-4.1-2.9l-2.6-7.2h-24l-2.7 7.2a4.4 4.4 0 01-4 2.9c-2.6 0-4.6-2-4.6-4.5 0-.6.2-1.2.4-1.6l15.7-40c1-2.8 3.9-4.9 7.2-4.9 3.3 0 6 2.1 7.2 5l15.6 39.9zm-32-11.7H516l-9.2-25.3-9.3 25.3zM574 31c3 0 4.7 1.7 4.7 4.7v10.7c0 2.3-.6 4.2-2.4 5.7A27 27 0 01558 59a25.3 25.3 0 01-26.3-26 25.2 25.2 0 0126.3-25.9 23 23 0 0117 6.8c.7.7 1.2 1.8 1.2 3a4 4 0 01-4 4c-1.2 0-2.2-.5-3-1.2a15.8 15.8 0 00-11.2-4.8c-10 0-17.3 7.6-17.3 18.1 0 10.5 7.4 18.2 17.3 18.2 5 0 9.6-2.4 11.8-4.5v-7.8h-11.5a4 4 0 01-3.9-4 4 4 0 014-3.8H574zM591.7 58c-3 0-4.6-1.7-4.6-4.7V12.6c0-3 1.6-4.6 4.6-4.6h26.2a4 4 0 013.9 3.9 4 4 0 01-4 3.8h-22v13h21.6a4 4 0 013.9 3.8 4 4 0 01-4 3.9h-21.5v13.9h22a4 4 0 014 3.8 4 4 0 01-4 3.9h-26.1zm37.3-4.6c-1-.7-1.6-2-1.6-3.3a4.2 4.2 0 016.6-3.4c3.5 2.6 7.8 4.4 13 4.4 7.2 0 10-3.5 10-6.8 0-4.5-5.3-5.9-11.3-7.4-8.2-2-17.8-4.5-17.8-15 0-8.3 7.3-14.7 19-14.7 5.8 0 10.5 1.5 15.4 4.6a4 4 0 011.9 3.4c0 2.2-1.9 4.1-4.1 4.1a4 4 0 01-2.4-.8 21.3 21.3 0 00-11.6-3.5c-6 0-9.2 2.5-9.2 6.3s5 5.1 11 6.6c8.3 2.1 18 4.7 18 15.6 0 8.3-5.8 15.4-19.3 15.4-7.4 0-13.2-2.1-17.6-5.5z" fill="#009E32" fill-rule="nonzero"/></g></svg>
