<svg width="256" height="256" version="1" xmlns="http://www.w3.org/2000/svg"><path d="M188 19l7 2h1l30 18c13 7 23 24 23 39v88c0 15-10 32-23 39l-75 44c-6 4-14 6-23 6-8 0-16-2-22-6l-75-44c-13-7-23-24-23-39V78c0-15 10-32 23-39l30-18h1l7-2c8 0 14 7 14 15 0 5-2 10-7 13h-1L46 65c-4 2-8 9-8 13v88c0 4 4 11 8 14l75 43 7 2 8-2 75-43c4-3 8-10 8-14V78c0-4-4-11-8-13l-29-18h-2a15 15 0 0 1 8-28zM132 2c7 0 13 6 13 12v95c0 7-6 13-13 13h-5c-7 0-13-6-13-13V14c0-6 6-12 13-12h5z" fill="#009D35" fill-rule="evenodd"/></svg>
